<svg xmlns="http://www.w3.org/2000/svg" width="230.954" height="188.145" viewBox="0 0 230.954 188.145"><defs><style>.cls-1{fill:#ffc130}</style></defs><g id="Group_42" data-name="Group 42" transform="translate(-254.036 -3579.343)"><g id="Group_45" data-name="Group 45" transform="translate(1674.036 3803.617)"><g id="Layer_1" data-name="Layer 1" transform="translate(-1350.025 -203.328)"><g id="Group_42-2" data-name="Group 42" transform="translate(.188)"><path id="Path_274" data-name="Path 274" class="cls-1" d="M-1134.028-136.125c0 5.059-4.252 8.789-10.072 8.789-5.843 0-10.071-3.729-10.071-8.789s4.228-8.789 10.071-8.789c5.82 0 10.072 3.729 10.072 8.789zm-16.557 0c0 3.444 2.661 5.725 6.485 5.725s6.485-2.28 6.485-5.725-2.661-5.725-6.485-5.725-6.484 2.281-6.484 5.725z" transform="translate(1154.171 144.914)"/><path id="Path_275" data-name="Path 275" class="cls-1" d="M-1061.516-123.471a4.967 4.967 0 0 0-1.5-.19c-2.756 0-4.584 1.116-4.584 3.991v5.321h-3.326v-12.495h3.326v2.209a5.148 5.148 0 0 1 4.7-2.28 5.312 5.312 0 0 1 1.378.166z" transform="translate(1092.895 131.666)"/><path id="Path_276" data-name="Path 276" class="cls-1" d="M-1029.611-143.924h3.4v3.088h-3.4zm3.373 17.055h-3.326v-12.495h3.326z" transform="translate(1062.487 144.185)"/><path id="Path_277" data-name="Path 277" class="cls-1" d="M-1003.877-133.591l6.746-5.772h4.584l-6.461 5.369 6.651 7.126h-4.181l-4.846-5.131-2.495 2.067v3.064h-3.325v-17.055h3.325z" transform="translate(1045.993 144.185)"/><path id="Path_278" data-name="Path 278" class="cls-1" d="M-951.942-118.423c0-2.3 1.971-3.587 4.964-3.9l5.2-.546v-.1c0-1.045-.926-1.9-3.112-1.9-1.829 0-3.326.808-3.753 1.9l-2.874-.974c.784-2.185 3.539-3.61 6.746-3.61 3.919 0 6.2 1.591 6.2 4.632V-118c0 .689.309 1 1.734.689v2.494c-2.732.546-4.086-.333-4.608-1.544a7.714 7.714 0 0 1-5.25 1.805c-2.991.005-5.247-1.344-5.247-3.867zm10.166-2.066l-4.7.523c-1.473.166-2.233.522-2.233 1.449 0 .95.926 1.425 2.47 1.425 2.043 0 4.466-.879 4.466-2.542z" transform="translate(1005.318 132.129)"/><path id="Path_279" data-name="Path 279" class="cls-1" d="M-889.393-127.307h3.326v1.544a5.489 5.489 0 0 1 4.323-1.782 4.876 4.876 0 0 1 4.347 2.233 6.461 6.461 0 0 1 5.036-2.233c3.682 0 5.654 2.3 5.654 5.867v6.865h-3.326v-6.223c0-2.114-.926-3.539-3.04-3.539-2.209 0-3.3 1.378-3.3 3.587v6.176h-3.327v-6.223c0-2.114-.926-3.539-3.04-3.539-2.233 0-3.326 1.378-3.326 3.587v6.176h-3.326z" transform="translate(959.278 132.129)"/><path id="Path_280" data-name="Path 280" class="cls-1" d="M-794.263-143.924h3.4v3.088h-3.4zm3.373 17.055h-3.326v-12.495h3.326z" transform="translate(889.257 144.185)"/><path id="Path_281" data-name="Path 281" class="cls-1" d="M-1148.056-18.884h-3.326v-16.723h3.326v1.52a6.286 6.286 0 0 1 4.679-1.758c4.276 0 6.794 2.945 6.794 6.485 0 3.563-2.518 6.508-6.794 6.508a6.286 6.286 0 0 1-4.679-1.758zm-.143-10.38c0 2.114 1.853 3.706 4.228 3.706 2.257 0 4.2-1.354 4.2-3.8 0-2.423-1.948-3.777-4.2-3.777-2.375 0-4.228 1.568-4.228 3.706z" transform="translate(1152.118 64.632)"/><path id="Path_282" data-name="Path 282" class="cls-1" d="M-1079.4-27.839l2.827 1.211c-.831 2.067-3.373 3.777-6.675 3.777-4.3 0-7.387-2.636-7.387-6.508 0-3.682 3.041-6.485 7.364-6.485s6.912 2.8 6.912 6.366v1.045h-11.069c.4 1.805 2.043 2.874 4.18 2.874a3.958 3.958 0 0 0 3.848-2.28zm-7.91-2.85h7.672c-.19-1.164-1.592-2.494-3.753-2.494a3.839 3.839 0 0 0-3.917 2.493z" transform="translate(1107.403 64.632)"/><path id="Path_283" data-name="Path 283" class="cls-1" d="M-1020.209-31.77a4.965 4.965 0 0 0-1.5-.19c-2.755 0-4.585 1.116-4.585 3.991v5.321h-3.325v-12.495h3.325v2.209a5.148 5.148 0 0 1 4.7-2.28 5.3 5.3 0 0 1 1.377.166z" transform="translate(1062.49 64.168)"/><path id="Path_284" data-name="Path 284" class="cls-1" d="M-991.445-27.649A7.1 7.1 0 0 0-986-25.44c1.829 0 3.04-.4 3.04-1.33 0-.95-1.14-.95-4.015-1.307-3.135-.4-5.63-.95-5.63-3.61 0-2.47 2.375-4.157 6.176-4.157 2.969 0 5.3 1.021 6.461 2.351l-1.9 2.019a6.276 6.276 0 0 0-4.727-1.805c-1.853 0-2.756.5-2.756 1.235 0 .784.879.879 3.587 1.211 3.278.38 6.1.855 6.1 3.729 0 2.851-2.922 4.252-6.484 4.252-3.017 0-5.772-.95-7.2-2.613z" transform="translate(1035.793 64.632)"/><path id="Path_285" data-name="Path 285" class="cls-1" d="M-923.23-29.359c0 3.919-3.207 6.508-7.269 6.508-4.086 0-7.316-2.589-7.316-6.508 0-3.9 3.23-6.485 7.316-6.485 4.062 0 7.269 2.589 7.269 6.485zm-3.207 0c0-2.352-1.829-3.706-4.062-3.706-2.28 0-4.086 1.354-4.086 3.706 0 2.375 1.805 3.729 4.086 3.729 2.233 0 4.062-1.354 4.062-3.729z" transform="translate(994.92 64.632)"/><path id="Path_286" data-name="Path 286" class="cls-1" d="M-875.537-35.607h3.325v1.568a5.978 5.978 0 0 1 4.561-1.805c3.373 0 5.44 2.3 5.44 5.772v6.96h-3.325v-6.176c0-2.138-1.069-3.563-3.207-3.563-2.233 0-3.468 1.378-3.468 3.61v6.129h-3.325z" transform="translate(949.08 64.632)"/><path id="Path_287" data-name="Path 287" class="cls-1" d="M-818.567-26.723c0-2.3 1.971-3.587 4.964-3.9l5.2-.546v-.1c0-1.045-.926-1.9-3.112-1.9-1.829 0-3.326.808-3.753 1.9l-2.874-.974c.784-2.185 3.539-3.61 6.746-3.61 3.919 0 6.2 1.591 6.2 4.632v4.921c0 .689.309 1 1.734.689v2.494c-2.732.546-4.086-.333-4.608-1.544a7.713 7.713 0 0 1-5.25 1.805c-2.991.005-5.247-1.349-5.247-3.867zm10.166-2.067l-4.7.523c-1.473.167-2.233.523-2.233 1.449 0 .95.926 1.425 2.47 1.425 2.043 0 4.466-.879 4.466-2.541z" transform="translate(907.146 64.632)"/><path id="Path_288" data-name="Path 288" class="cls-1" d="M-752.692-35.169h-3.326v-17.055h3.326z" transform="translate(861.106 76.689)"/><path id="Path_289" data-name="Path 289" class="cls-1" d="M-733.968-52.224h3.4v3.088h-3.4zm3.373 17.055h-3.326v-12.494h3.326z" transform="translate(844.876 76.689)"/><path id="Path_290" data-name="Path 290" class="cls-1" d="M-700.1-22.45h-13.254v-2.47l8.551-7.245h-8.48v-2.779h13.112v2.494l-8.5 7.221h8.575z" transform="translate(829.706 63.97)"/><path id="Path_291" data-name="Path 291" class="cls-1" d="M-648.573-27.839l2.827 1.211c-.831 2.067-3.373 3.777-6.675 3.777-4.3 0-7.387-2.636-7.387-6.508 0-3.682 3.041-6.485 7.364-6.485s6.912 2.8 6.912 6.366v1.045H-656.6c.4 1.805 2.043 2.874 4.181 2.874a3.957 3.957 0 0 0 3.846-2.28zm-7.91-2.85h7.672c-.19-1.164-1.592-2.494-3.753-2.494a3.839 3.839 0 0 0-3.919 2.493z" transform="translate(790.29 64.632)"/><path id="Path_292" data-name="Path 292" class="cls-1" d="M-594.247-34.908c-4.276 0-6.793-2.945-6.793-6.508 0-3.539 2.518-6.485 6.793-6.485a6.286 6.286 0 0 1 4.68 1.758v-6.081h3.325v17.055h-3.325v-1.5a6.286 6.286 0 0 1-4.68 1.761zm.594-10.285c-2.257 0-4.2 1.354-4.2 3.777 0 2.446 1.947 3.8 4.2 3.8 2.375 0 4.228-1.592 4.228-3.706v-.166c.001-2.137-1.852-3.705-4.228-3.705z" transform="translate(747.033 76.689)"/><path id="Path_293" data-name="Path 293" class="cls-1" d="M-1151.382 39.476h3.326V45.6a5.978 5.978 0 0 1 4.556-1.8c3.373 0 5.44 2.3 5.44 5.772v6.96h-3.325v-6.177c0-2.138-1.069-3.563-3.207-3.563-2.233 0-3.468 1.378-3.468 3.611v6.128h-3.326z" transform="translate(1152.118 9.192)"/><path id="Path_294" data-name="Path 294" class="cls-1" d="M-1083.086 63.86l2.827 1.211c-.831 2.067-3.373 3.777-6.675 3.777-4.3 0-7.387-2.636-7.387-6.508 0-3.682 3.04-6.485 7.363-6.485s6.912 2.8 6.912 6.366v1.045h-11.069c.4 1.805 2.043 2.874 4.181 2.874a3.957 3.957 0 0 0 3.848-2.28zm-7.91-2.85h7.673c-.19-1.164-1.592-2.494-3.753-2.494A3.839 3.839 0 0 0-1091 61.01z" transform="translate(1110.118 -2.864)"/><path id="Path_295" data-name="Path 295" class="cls-1" d="M-1036.184 64.976c0-2.3 1.972-3.587 4.965-3.9l5.2-.547v-.089c0-1.045-.926-1.9-3.112-1.9-1.829 0-3.326.808-3.753 1.9l-2.874-.974c.784-2.185 3.539-3.611 6.746-3.611 3.919 0 6.2 1.592 6.2 4.632V65.4c0 .689.309 1 1.734.689v2.494c-2.732.547-4.086-.333-4.608-1.544a7.717 7.717 0 0 1-5.25 1.805c-2.991.004-5.248-1.35-5.248-3.868zm10.167-2.067l-4.7.523c-1.472.166-2.233.523-2.233 1.449 0 .95.926 1.425 2.47 1.425 2.043 0 4.466-.879 4.466-2.542z" transform="translate(1067.325 -2.864)"/><path id="Path_296" data-name="Path 296" class="cls-1" d="M-970.308 56.531h-3.326V39.476h3.326z" transform="translate(1021.285 9.192)"/><path id="Path_297" data-name="Path 297" class="cls-1" d="M-953.361 49.6h-2.993v-2.781h2.993v-3.563h3.278v3.563h5.321V49.6h-5.321v4.988c0 1.473.808 1.972 2.542 1.972a8.219 8.219 0 0 0 2.732-.523l.57 2.732a12.18 12.18 0 0 1-4.038.712c-2.755 0-5.083-1.14-5.083-4.347z" transform="translate(1008.566 6.41)"/><path id="Path_298" data-name="Path 298" class="cls-1" d="M-904.335 39.476h3.326V45.6a5.978 5.978 0 0 1 4.561-1.805c3.373 0 5.44 2.3 5.44 5.772v6.96h-3.325v-6.172c0-2.138-1.069-3.563-3.207-3.563-2.233 0-3.468 1.378-3.468 3.611v6.128h-3.326z" transform="translate(970.277 9.192)"/><path id="Path_299" data-name="Path 299" class="cls-1" d="M-839.863 55.855c3.492 0 5.843 1.972 6.58 3.991l-2.779 1.354a3.968 3.968 0 0 0-3.824-2.589c-2.375 0-4.157 1.4-4.157 3.729 0 2.352 1.782 3.753 4.157 3.753a3.968 3.968 0 0 0 3.824-2.589l2.755 1.4c-.736 2-3.064 3.943-6.556 3.943-4.228 0-7.411-2.636-7.411-6.508 0-3.847 3.183-6.484 7.411-6.484z" transform="translate(928.276 -2.864)"/><path id="Path_300" data-name="Path 300" class="cls-1" d="M-791.3 64.976c0-2.3 1.972-3.587 4.965-3.9l5.2-.547v-.089c0-1.045-.926-1.9-3.112-1.9-1.829 0-3.326.808-3.753 1.9l-2.874-.974c.784-2.185 3.539-3.611 6.746-3.611 3.919 0 6.2 1.592 6.2 4.632V65.4c0 .689.309 1 1.734.689v2.494c-2.732.547-4.086-.333-4.608-1.544a7.715 7.715 0 0 1-5.249 1.805c-2.988.004-5.249-1.35-5.249-3.868zm10.167-2.067l-4.7.523c-1.473.166-2.233.523-2.233 1.449 0 .95.926 1.425 2.47 1.425 2.043 0 4.466-.879 4.466-2.542z" transform="translate(887.073 -2.864)"/><path id="Path_301" data-name="Path 301" class="cls-1" d="M-719.339 59.929a4.968 4.968 0 0 0-1.5-.19c-2.756 0-4.584 1.116-4.584 3.991v5.321h-3.326V56.556h3.326v2.209a5.148 5.148 0 0 1 4.7-2.28 5.3 5.3 0 0 1 1.378.167z" transform="translate(841.033 -3.328)"/><path id="Path_302" data-name="Path 302" class="cls-1" d="M-679.979 63.86l2.826 1.211c-.831 2.067-3.373 3.777-6.675 3.777-4.3 0-7.387-2.636-7.387-6.508 0-3.682 3.041-6.485 7.364-6.485s6.912 2.8 6.912 6.366v1.045h-11.069c.4 1.805 2.043 2.874 4.18 2.874a3.958 3.958 0 0 0 3.849-2.28zm-7.91-2.85h7.672c-.19-1.164-1.591-2.494-3.753-2.494a3.839 3.839 0 0 0-3.919 2.494z" transform="translate(813.407 -2.864)"/></g><g id="Group_43" data-name="Group 43" transform="translate(0 88.953)"><path id="Rectangle_40" data-name="Rectangle 40" class="cls-1" d="M0 0h19.496v1.32H0z"/></g></g><g id="Layer_2" data-name="Layer 2" transform="translate(-1420 -224.274)"><g id="Group_44" data-name="Group 44"><path id="Path_303" data-name="Path 303" class="cls-1" d="M-1368.25-211.6l-12.671-12.671h-25.825l-.579.579-12.675 12.67v25.822l.578.578 10.691 10.691-11.269 11.279v25.825l.578.579 10.691 10.691-11.269 11.274v5.6l14.072-14.072 3.246 3.246L-1420-102.19v5.6l20.118-20.118 3.247 3.246L-1420-90.1v5.6l26.164-26.165 9.293 9.293L-1420-65.914v5.6l39.655-39.655 6.044-6.043 2.666-2.666v6.493L-1420-53.821v5.6l48.369-48.37v6.491L-1420-41.729v5.6l52.328-52.329v-25.825l-.579-.579-10.691-10.691 11.272-11.273v-25.824l-.579-.579-10.691-10.691 11.272-11.272v-25.825zm-14.313-8.715l10.113 10.113-3.247 3.247-13.36-13.36zm-12.093 0l16.159 16.159-3.246 3.246-19.406-19.406zm10.113 22.205l-9.293 9.293-9.292-9.293 9.293-9.293zm-31.5-11.272l10.113-10.113 3.246 3.247-13.359 13.359zm0 12.092l16.159-16.159 3.247 3.246-19.406 19.406zm.82 11.272l3.247-3.247 33.478 33.478-3.246 3.247-16.738-16.737-6.043-6.043zm30.678 36.277l-9.293 9.293-9.293-9.293 9.293-9.293zm-31.5-11.273l10.113-10.113 3.246 3.246-13.359 13.36zm0 12.093l16.159-16.159 3.247 3.247-19.406 19.406zm34.3 44.75l-16.738-16.738-6.044-6.044-10.692-10.691 3.247-3.247 33.478 33.478zm9.293-9.293l-3.247 3.247-33.478-33.478 3.247-3.246 10.691 10.691 12.09 12.09zm.82-25l-10.113 10.113-3.247-3.246 13.359-13.36zm0-12.092l-16.158 16.156-3.246-3.247 10.691-10.691 8.712-8.712zm-.82-11.272l-3.247 3.246-33.478-33.478 3.247-3.246 10.691 10.691zm.82-25l-10.113 10.113-3.247-3.246 13.359-13.36zm0-12.093l-16.159 16.159-3.247-3.247 10.692-10.691 6.044-6.043 2.666-2.666z" transform="translate(1420 224.274)"/></g></g></g></g></svg>