<svg width="147" height="33" viewBox="0 0 147 33" fill="none" xmlns="http://www.w3.org/2000/svg">
<path d="M72.6352 1.07476e-06C66.9677 -0.00251731 62.3258 4.42112 62.3276 9.82588C62.3265 13.5501 64.537 16.8078 67.7695 18.4714C67.9911 17.6434 68.4412 16.8773 69.0919 16.2631C69.6634 15.717 70.3571 15.3174 71.1121 15.0858C68.6725 14.4581 66.9078 12.3591 66.9088 9.82076C66.9065 6.78845 69.445 4.36253 72.6331 4.36733C73.8536 4.36733 75.0143 3.90844 75.8749 3.08553C76.7399 2.26972 77.2163 1.1572 77.2206 0.00192245L72.6352 0.000121847V1.07476e-06Z" fill="#0c90c0"/>
<path d="M77.9784 1.81847C77.7568 2.6462 77.3067 3.41193 76.6563 4.0259C76.0849 4.57199 75.3914 4.97157 74.6366 5.20323C77.0758 5.83119 78.8402 7.93017 78.8391 10.4683C78.8414 13.5006 76.3031 15.9265 73.115 15.9217C71.8945 15.9217 70.7338 16.3806 69.8732 17.2035C69.0083 18.0193 68.5316 19.1318 68.5273 20.2871L73.113 20.2889C74.9726 20.29 76.7221 19.814 78.2329 18.9833C81.3268 17.2826 83.4217 14.0944 83.4205 10.463C83.4217 6.73905 81.2106 3.48203 77.9784 1.81836V1.81847Z" fill="#0c90c0"/>
<path d="M10.6297 0.320312C4.9579 0.320312 0.317383 4.74809 0.317383 10.1416V15.6006V19.963C1.53755 19.963 2.69779 19.5047 3.55714 18.6862C4.4165 17.8678 4.89774 16.7628 4.89774 15.6006V10.1416C4.89774 7.11342 7.43282 4.699 10.6125 4.69084H12.6465C13.858 4.69084 15.0268 4.23248 15.8861 3.41406C16.7455 2.59559 17.2267 1.48249 17.2267 0.320312H10.6297Z" fill="#0c90c0"/>
<path d="M41.1046 0C40.0562 0.581088 39.2828 1.53867 38.9734 2.65177C38.6727 3.71573 38.8102 4.83705 39.3429 5.81099C39.3687 5.86011 39.3945 5.9174 39.4289 5.96651L47.4469 19.1925C47.4725 19.2254 47.4897 19.258 47.5069 19.2907C47.5327 19.3236 47.5586 19.3562 47.5842 19.3889C47.6014 19.4133 47.61 19.4299 47.6272 19.4544C47.6616 19.4873 47.696 19.5281 47.7303 19.569C47.7561 19.5938 47.7819 19.6182 47.8163 19.6427C47.8421 19.6756 47.8678 19.7 47.9022 19.7327C47.9366 19.7571 47.9796 19.79 48.0139 19.8227C48.0397 19.839 48.0655 19.8556 48.0913 19.8718C48.1257 19.8962 48.16 19.921 48.1944 19.9373C48.2202 19.9617 48.2546 19.9782 48.2889 19.9946C48.3491 20.0275 48.4178 20.0601 48.4866 20.0928C48.5124 20.1009 48.5381 20.1172 48.5639 20.1257C48.6069 20.1419 48.6413 20.1504 48.6842 20.1666C48.7014 20.1747 48.7272 20.1829 48.7444 20.1829C48.7959 20.1991 48.8475 20.2157 48.8991 20.232C48.9249 20.232 48.9506 20.2401 48.9764 20.2401C49.0194 20.2481 49.0709 20.2563 49.1139 20.2644C49.1398 20.2725 49.1741 20.2725 49.1998 20.2725C49.2428 20.2806 49.2858 20.2806 49.3287 20.2806C49.3631 20.2887 49.3975 20.2887 49.4319 20.2887C49.4662 20.2887 49.5092 20.2887 49.5436 20.2806C49.5866 20.2806 49.6209 20.2806 49.6639 20.2725C49.6897 20.2725 49.7241 20.2725 49.7584 20.2644C49.8014 20.2563 49.8443 20.2482 49.8873 20.2401C49.9132 20.2401 49.939 20.232 49.9647 20.2238C50.0163 20.2157 50.0678 20.1995 50.1195 20.1829C50.1451 20.1748 50.1623 20.1748 50.1882 20.1666C50.2226 20.1504 50.257 20.1423 50.2913 20.1337C50.317 20.1175 50.3514 20.1009 50.3859 20.0928C50.4287 20.0685 50.4804 20.0437 50.532 20.0192C50.5491 20.0111 50.5663 20.003 50.5835 19.9948C50.6179 19.9705 50.6435 19.9539 50.678 19.9375C50.7124 19.9132 50.7468 19.8884 50.7812 19.8721C50.8068 19.8558 50.824 19.8392 50.8499 19.823C50.8928 19.7901 50.9273 19.7575 50.9702 19.7248C50.996 19.7004 51.0218 19.6756 51.0562 19.6429C51.0819 19.6185 51.1077 19.5938 51.1335 19.5611C51.1679 19.5282 51.2023 19.4874 51.2366 19.4547C51.2538 19.4303 51.271 19.4138 51.2882 19.3892C51.314 19.3563 51.3397 19.3237 51.3569 19.291C51.3827 19.2581 51.3999 19.2255 51.4171 19.2009C51.4171 19.1928 51.4171 19.1928 51.4171 19.1928L59.4435 5.96681C60.0708 4.91916 59.7013 3.58512 58.6013 2.97944C57.5013 2.38199 56.1092 2.7339 55.4731 3.78155L49.4319 13.742L43.3991 3.78155L41.1046 0.00030742V0Z" fill="#0c90c0"/>
<path d="M122.901 0C123.95 0.581088 124.723 1.53048 125.032 2.65177C125.334 3.71573 125.196 4.8452 124.663 5.81099C124.637 5.86011 124.603 5.9174 124.578 5.9665L116.559 19.1925C116.551 19.2006 116.551 19.2006 116.551 19.2006C116.534 19.225 116.517 19.2579 116.5 19.2825C116.473 19.3234 116.448 19.3561 116.422 19.3889C116.404 19.4052 116.387 19.4298 116.37 19.4544C116.345 19.4872 116.31 19.528 116.276 19.5689C116.25 19.5937 116.224 19.618 116.198 19.6426C116.164 19.6669 116.139 19.6999 116.104 19.7244C116.07 19.7573 116.026 19.7899 115.984 19.8227C115.967 19.8389 115.94 19.8555 115.915 19.8718C115.881 19.8961 115.846 19.9127 115.812 19.9372C115.786 19.9535 115.751 19.9782 115.717 19.9945C115.709 20.0026 115.7 20.0026 115.683 20.0108C115.631 20.0436 115.579 20.0681 115.52 20.0926C115.493 20.1007 115.468 20.117 115.434 20.1255C115.4 20.1417 115.356 20.1584 115.322 20.1664C115.304 20.1745 115.287 20.1745 115.262 20.1827C115.211 20.1989 115.159 20.2155 115.107 20.2235C115.081 20.2316 115.056 20.2398 115.029 20.2398C114.987 20.2479 114.936 20.2561 114.892 20.2642C114.858 20.2723 114.832 20.2722 114.806 20.2722C114.764 20.2803 114.72 20.2803 114.678 20.2803C114.643 20.2884 114.609 20.2885 114.575 20.2885C114.531 20.2885 114.497 20.2884 114.462 20.2803C114.42 20.2803 114.386 20.2803 114.342 20.2722C114.308 20.2722 114.282 20.2723 114.248 20.2642C114.205 20.2561 114.162 20.2479 114.111 20.2398C114.084 20.2398 114.067 20.2317 114.042 20.2235C113.99 20.2155 113.939 20.1992 113.887 20.1827C113.861 20.1746 113.836 20.1746 113.818 20.1664C113.792 20.1583 113.767 20.1501 113.74 20.142C113.74 20.1339 113.733 20.1339 113.723 20.1339C113.689 20.1177 113.655 20.1096 113.62 20.093C113.569 20.0687 113.509 20.0358 113.458 20.0112C113.449 20.0031 113.441 20.0031 113.423 19.995C113.389 19.9787 113.363 19.9541 113.328 19.9376C113.294 19.9133 113.259 19.8967 113.225 19.8721C113.2 19.8559 113.183 19.8393 113.156 19.823C113.114 19.7902 113.08 19.7576 113.036 19.7248C113.011 19.7005 112.984 19.6757 112.959 19.6511C112.925 19.6183 112.898 19.5938 112.864 19.5611C112.83 19.5283 112.805 19.4875 112.77 19.4547C112.753 19.4304 112.736 19.4056 112.719 19.3893C112.692 19.3564 112.667 19.3238 112.641 19.2829C112.624 19.2585 112.606 19.2255 112.589 19.201V19.1929L104.563 5.96694C103.936 4.9193 104.305 3.58525 105.405 2.97957C106.505 2.38212 107.897 2.73404 108.533 3.78169L114.575 13.7421L120.608 3.78169L122.902 0.000439171L122.901 0Z" fill="#0c90c0"/>
<path d="M27.4947 0.328125C25.7501 0.328125 23.9798 0.753737 22.3728 1.63766C17.4658 4.33855 15.7642 10.3786 18.6001 15.052C21.4361 19.7335 27.7783 21.354 32.6852 18.6531L36.6554 16.4679C36.0453 15.4694 35.0484 14.7328 33.8711 14.4381C32.6938 14.1353 31.4476 14.2908 30.3906 14.8719C27.6322 16.3942 24.1603 15.5021 22.5705 12.8748C20.972 10.2395 21.9002 6.94122 24.6673 5.4189C26.7213 4.28944 29.1617 4.48586 30.9406 5.74628L26.2485 8.32442C25.2259 8.88915 24.9079 10.1904 25.5438 11.238C26.1798 12.2856 27.5119 12.6703 28.5431 12.1055L35.7531 8.14433C36.7327 7.60416 37.0593 6.40104 36.5437 5.38614C36.518 5.33703 36.4921 5.28793 36.4578 5.23067C34.5586 2.09598 31.0695 0.328125 27.4947 0.328125Z" fill="#0c90c0"/>
<path d="M137.708 0.328125C135.964 0.328125 134.202 0.753737 132.586 1.63766C127.68 4.33855 125.978 10.3786 128.814 15.052C131.65 19.7335 137.992 21.354 142.899 18.6531L146.869 16.4679C146.259 15.4694 145.262 14.7328 144.084 14.4381C142.916 14.1353 141.661 14.2908 140.613 14.8719C137.845 16.3942 134.383 15.5021 132.784 12.8748C131.186 10.2395 132.114 6.94122 134.881 5.4189C136.935 4.28944 139.375 4.48586 141.155 5.74628L136.462 8.32442C135.439 8.88915 135.122 10.1904 135.758 11.238C136.394 12.2856 137.734 12.6703 138.756 12.1055L145.967 8.14433C146.947 7.60416 147.273 6.40104 146.758 5.38614H146.766C146.731 5.33703 146.706 5.28793 146.672 5.23067C144.772 2.09598 141.283 0.328125 137.708 0.328125H137.708Z" fill="#0c90c0"/>
<path d="M97.0432 19.963C91.3713 19.963 86.7305 15.5434 86.7305 10.1416V4.69084V0.320312C87.9422 0.320312 89.1105 0.78683 89.97 1.60525C90.8294 2.42372 91.3106 3.52863 91.3106 4.69084V10.1416C91.3106 13.178 93.8371 15.5925 97.026 15.6006H101.701C102.921 15.6006 104.09 16.059 104.949 16.8774C105.809 17.6959 106.29 18.809 106.29 19.963H97.0432Z" fill="#0c90c0"/>
<path d="M5.41788 32.829H4.69589V28.9634H0.728032V32.829H0V24.416H0.728032V28.3625H4.69589V24.416H5.41788V32.829Z" fill="#0c90c0"/>
<path d="M20.822 28.767H17.3516V32.2281H21.3377V32.829H16.6235V24.416H21.3013V25.0285H17.3516V28.1661H20.822V28.767Z" fill="#0c90c0"/>
<path d="M35.8556 30.4947H32.634L31.8817 32.829H31.1294L33.9263 24.416H34.5876L37.3542 32.829H36.6019L35.8556 30.4947ZM32.8403 29.859H35.6554L34.2721 25.5312H34.2357L32.8403 29.859Z" fill="#0c90c0"/>
<path d="M48.5115 32.2281H52.0789V32.829H47.7773V24.416H48.5115V32.2281Z" fill="#0c90c0"/>
<path d="M65.8325 25.0285H63.3632V32.829H62.6351V25.0285H60.1719V24.416H65.8325V25.0285Z" fill="#0c90c0"/>
<path d="M81.728 32.829H81.006V28.9634H77.0381V32.829H76.3101V24.416H77.0381V28.3625H81.006V24.416H81.728V32.829Z" fill="#0c90c0"/>
<path d="M97.7569 30.3851L97.7751 30.4198C97.767 31.2403 97.5405 31.8682 97.0956 32.3035C96.6507 32.7349 96.0379 32.9506 95.2573 32.9506C94.4443 32.9506 93.7992 32.6771 93.3219 32.1301C92.8446 31.5831 92.606 30.803 92.606 29.7899V27.4613C92.606 26.4559 92.8446 25.6778 93.3219 25.127C93.8032 24.5723 94.4483 24.2949 95.2573 24.2949C96.046 24.2949 96.6608 24.5068 97.1017 24.9305C97.5425 25.3542 97.767 25.986 97.7751 26.8258L97.7569 26.8604H97.0835C97.0632 26.194 96.9014 25.7029 96.5981 25.387C96.2947 25.0673 95.8478 24.9074 95.2573 24.9074C94.6506 24.9074 94.1773 25.1251 93.8376 25.5603C93.4978 25.9956 93.3279 26.6235 93.3279 27.444V29.79C93.3279 30.6259 93.4978 31.2615 93.8376 31.6968C94.1773 32.132 94.6506 32.3497 95.2573 32.3497C95.8478 32.3497 96.2947 32.1956 96.5981 31.8874C96.9014 31.5754 97.0632 31.0746 97.0835 30.3851L97.7569 30.3851Z" fill="#0c90c0"/>
<path d="M112.536 30.4947H109.314L108.562 32.829H107.81L110.606 24.416H111.268L114.034 32.829H113.282L112.536 30.4947ZM109.52 29.859H112.336L110.952 25.5312H110.916L109.52 29.859Z" fill="#0c90c0"/>
<path d="M125.173 29.0328V32.8291H124.445V24.4219H126.981C127.774 24.4219 128.381 24.6203 128.802 25.017C129.222 25.4138 129.432 25.9916 129.432 26.7505C129.432 27.1973 129.321 27.596 129.099 27.9465C128.876 28.2932 128.561 28.5494 128.152 28.715C128.601 28.846 128.923 29.081 129.117 29.42C129.315 29.759 129.414 30.1808 129.414 30.6854V31.477C129.414 31.7389 129.441 31.9739 129.493 32.1819C129.546 32.3899 129.635 32.5594 129.76 32.6904V32.8291H129.014C128.888 32.6904 128.801 32.4978 128.753 32.2513C128.708 32.0047 128.686 31.7428 128.686 31.4654V30.697C128.686 30.1885 128.551 29.784 128.28 29.4835C128.009 29.1831 127.637 29.0328 127.163 29.0328H125.173ZM125.173 28.4319H126.896C127.519 28.4319 127.974 28.2817 128.262 27.9812C128.553 27.6769 128.698 27.2647 128.698 26.7447C128.698 26.1938 128.557 25.7701 128.274 25.4735C127.991 25.1769 127.56 25.0286 126.981 25.0286H125.173V28.4319Z" fill="#0c90c0"/>
<path d="M144.77 28.767H141.299V32.2281H145.285V32.829H140.571V24.416H145.249V25.0285H141.299V28.1661H144.77V28.767Z" fill="#0c90c0"/>
</svg>
